<svg width="402" height="407" viewBox="0 0 402 407" fill="none" xmlns="http://www.w3.org/2000/svg">
<path fill-rule="evenodd" clip-rule="evenodd" d="M402 221.233L73.674 0L57.393 24.1621L385.719 245.395L402 221.233ZM113.565 85.7999L46.0689 40.3198L29.7879 64.4819L97.2838 109.962L113.565 85.7999ZM295.982 210.642L372.107 261.937L355.826 286.099L279.701 234.804L295.982 210.642ZM212.731 251.834L107.425 406.115L83.9984 390.125L205.697 211.828L221.042 222.302L341.734 303.626L325.453 327.789L212.731 251.834ZM17.4576 83.4052L123.21 154.663L123.27 154.574L138.093 164.692L143.364 168.244L143.343 168.275L146.696 170.564L23.4264 351.163L0 335.174L106.784 178.728L1.17666 107.567L17.4576 83.4052ZM64.5264 380.544L147.043 259.652L123.616 243.662L41.1 364.554L64.5264 380.544Z" fill="#DEF0FF"/>
</svg>
